P2
# CREATOR: GIMP PNM Filter Version 1.1
16 16
255
0
0
0
0
0
0
0
0
0
0
0
0
0
0
0
0
0
0
0
0
0
64
128
128
128
128
64
0
0
0
0
0
0
0
0
64
128
192
192
128
128
192
192
128
64
0
0
0
0
0
64
192
192
128
64
0
0
64
128
192
192
64
0
0
0
0
128
192
64
0
0
0
0
0
0
64
192
128
0
0
0
64
192
128
0
0
0
0
0
0
0
0
128
192
64
0
0
128
192
64
0
0
0
0
0
0
0
0
64
192
128
0
0
128
128
0
0
0
0
0
0
0
0
0
0
128
128
0
0
128
128
0
0
0
0
0
0
0
0
0
0
128
128
0
0
128
192
64
0
0
0
0
0
0
0
0
64
192
128
0
0
64
192
128
0
0
0
0
0
0
0
0
128
192
64
0
0
0
128
192
64
0
0
0
0
0
0
64
192
128
0
0
0
0
64
192
192
128
64
0
0
64
128
192
192
64
0
0
0
0
0
64
128
192
192
128
128
192
192
128
64
0
0
0
0
0
0
0
0
64
128
128
128
128
64
0
0
0
0
0
0
0
0
0
0
0
0
0
0
0
0
0
0
0
0
0
