P2
# CREATOR: GIMP PNM Filter Version 1.1
16 16
255
255
255
255
255
255
255
255
255
255
255
255
255
255
255
255
255
255
255
255
255
255
191
127
127
127
127
191
255
255
255
255
255
255
255
255
191
127
63
63
127
127
63
63
127
191
255
255
255
255
255
191
63
63
127
191
255
255
191
127
63
63
191
255
255
255
255
127
63
191
255
255
255
255
255
255
191
63
127
255
255
255
191
63
127
255
255
255
255
255
255
255
255
127
63
191
255
255
127
63
191
255
255
255
255
255
255
255
255
191
63
127
255
255
127
127
255
255
255
255
255
255
255
255
255
255
127
127
255
255
127
127
255
255
255
255
255
255
255
255
255
255
127
127
255
255
127
63
191
255
255
255
255
255
255
255
255
191
63
127
255
255
191
63
127
255
255
255
255
255
255
255
255
127
63
191
255
255
255
127
63
191
255
255
255
255
255
255
191
63
127
255
255
255
255
191
63
63
127
191
255
255
191
127
63
63
191
255
255
255
255
255
191
127
63
63
127
127
63
63
127
191
255
255
255
255
255
255
255
255
191
127
127
127
127
191
255
255
255
255
255
255
255
255
255
255
255
255
255
255
255
255
255
255
255
255
255
